<?xml version="1.0" encoding="UTF-8"?>
<svg version="1.1" xmlns="http://www.w3.org/2000/svg" width="408" height="612">
<path d="M0 0 C4.27937586 3.87181626 8.05071189 7.84756839 11.625 12.375 C12.2025 12.931875 12.78 13.48875 13.375 14.0625 C14.625 15.375 14.625 15.375 14.625 17.375 C15.285 17.375 15.945 17.375 16.625 17.375 C18.95986745 21.02323039 18.92899283 24.11910043 18.625 28.375 C17.78212242 30.97387253 17.12209737 32.00677973 14.9375 33.625 C11.08573043 34.87422256 7.40894661 34.84722116 3.5 33.8125 C1.12390374 31.9908262 -0.2876458 29.72353175 -1.9375 27.25390625 C-3.96184887 24.60795025 -6.40137658 22.67430181 -9.01953125 20.63671875 C-9.46683594 20.22035156 -9.91414062 19.80398438 -10.375 19.375 C-10.375 18.715 -10.375 18.055 -10.375 17.375 C-11.035 17.375 -11.695 17.375 -12.375 17.375 C-12.375 16.715 -12.375 16.055 -12.375 15.375 C-13.035 15.16875 -13.695 14.9625 -14.375 14.75 C-17.03811494 13.52940565 -18.74540361 12.36710493 -21 10.5625 C-25.73050812 6.89613265 -30.88317935 4.6740793 -36.375 2.375 C-37.45136719 1.87742188 -38.52773438 1.37984375 -39.63671875 0.8671875 C-63.84980372 -9.44050938 -96.32892518 -7.10158601 -120.375 2.375 C-121.39722656 2.72820312 -122.41945313 3.08140625 -123.47265625 3.4453125 C-133.22325678 6.91390557 -142.45679135 11.8286942 -150.68359375 18.1484375 C-152.375 19.375 -152.375 19.375 -154.375 19.375 C-154.375 20.035 -154.375 20.695 -154.375 21.375 C-159.85119048 26.375 -159.85119048 26.375 -162.375 26.375 C-162.63796875 26.93960938 -162.9009375 27.50421875 -163.171875 28.0859375 C-164.47459878 30.56449637 -165.98447768 32.73134977 -167.625 35 C-180.78300175 53.68381537 -185.48102025 72.13783713 -181.99609375 94.84375 C-179.84492403 104.61122333 -174.67453999 112.73919395 -168.375 120.375 C-167.715 120.705 -167.055 121.035 -166.375 121.375 C-166.375 122.035 -166.375 122.695 -166.375 123.375 C-165.83488281 123.62636719 -165.29476562 123.87773437 -164.73828125 124.13671875 C-161.8775257 125.63566009 -159.26075985 127.41241837 -156.5625 129.1875 C-140.83550169 139.10156641 -121.97978169 141.97930312 -103.6875 141.8125 C-102.99522308 141.81012329 -102.30294617 141.80774658 -101.58969116 141.80529785 C-89.81960662 141.74239149 -78.73940807 140.50943926 -67.375 137.375 C-66.15039062 137.06304687 -64.92578125 136.75109375 -63.6640625 136.4296875 C-49.05124311 132.37624809 -34.17557496 123.7243039 -26.1953125 110.40625 C-22.43741814 103.27447969 -19.62553161 95.39833746 -21.95703125 87.37109375 C-25.0802204 80.0836524 -31.39499194 74.6270478 -38.375 71.0625 C-52.50468145 65.52919817 -68.24404134 64.69715535 -82.375 70.375 C-83.55642578 70.79072266 -83.55642578 70.79072266 -84.76171875 71.21484375 C-97.87644592 76.01191036 -116.91783894 87.46067788 -123.375 100.375 C-124.035 100.375 -124.695 100.375 -125.375 100.375 C-125.643125 101.138125 -125.91125 101.90125 -126.1875 102.6875 C-127.36025491 105.34162954 -128.33181362 106.41354108 -130.375 108.375 C-130.7875 109.2 -131.2 110.025 -131.625 110.875 C-134.06789316 114.36484737 -136.32268927 115.20738504 -140.375 116.375 C-144.29699836 115.60598071 -147.62785632 114.3256358 -150.375 111.375 C-152.21905845 105.22813851 -150.50708786 101.09843257 -148.375 95.375 C-146.16459739 88.64414287 -144.222279 81.88737353 -142.5625 75 C-140.43088812 66.16435404 -137.72835388 57.51458211 -135.05078125 48.83203125 C-132.24886136 39.74578291 -129.59445037 30.62270989 -127.375 21.375 C-126.715 21.375 -126.055 21.375 -125.375 21.375 C-125.375 20.715 -125.375 20.055 -125.375 19.375 C-121.34014506 16.68509671 -118.11271348 16.59506118 -113.375 17.375 C-110.3125 19.3125 -110.3125 19.3125 -108.375 22.375 C-107.30089241 27.76639441 -108.51334805 32.47978973 -110.3828125 37.52734375 C-111.74254436 41.42988126 -112.83569279 45.39310862 -113.9375 49.375 C-114.14721436 50.12257568 -114.35692871 50.87015137 -114.57299805 51.64038086 C-116.01486457 56.85056812 -117.24928653 62.08781833 -118.375 67.375 C-117.9315625 66.91222656 -117.488125 66.44945312 -117.03125 65.97265625 C-115.00618317 64.01923094 -112.8092447 62.7746907 -110.375 61.375 C-109.385 60.715 -108.395 60.055 -107.375 59.375 C-106.385 59.375 -105.395 59.375 -104.375 59.375 C-104.375 58.715 -104.375 58.055 -104.375 57.375 C-102.85959201 56.63462396 -101.33710515 55.90874698 -99.8125 55.1875 C-98.81863281 54.71699219 -97.82476562 54.24648438 -96.80078125 53.76171875 C-94.24406298 52.72678718 -92.12897427 52.0344955 -89.48046875 51.45703125 C-85.39222635 50.51925527 -82.04597769 49.46956502 -78.375 47.375 C-75.83881628 43.32444212 -74.79034162 39.21751167 -73.84326172 34.59716797 C-73.17162722 31.40988056 -72.32395596 28.27827331 -71.46337891 25.13745117 C-71.03917505 23.58145361 -70.63295326 22.02040709 -70.24755859 20.4543457 C-69.08853518 15.97228676 -67.8868473 12.60514832 -64.375 9.375 C-60.6396774 8.44116935 -57.14745086 8.66408221 -53.375 9.375 C-50.44584946 11.74621711 -49.6745193 13.37045834 -48.61328125 16.9296875 C-48.27581567 21.8091079 -49.68649957 25.76696256 -51.1875 30.375 C-51.59838867 31.68984375 -51.59838867 31.68984375 -52.01757812 33.03125 C-53.41950279 37.49589256 -54.87987725 41.94068472 -56.375 46.375 C-55.53839844 46.44976562 -54.70179688 46.52453125 -53.83984375 46.6015625 C-41.90348605 47.9498554 -32.07280643 51.91194336 -21.375 57.375 C-21.375 58.035 -21.375 58.695 -21.375 59.375 C-20.694375 59.560625 -20.01375 59.74625 -19.3125 59.9375 C-15.1570622 61.97101211 -12.4739324 64.99434647 -9.375 68.375 C-8.653125 69.138125 -7.93125 69.90125 -7.1875 70.6875 C-0.19551494 81.05492612 0.4566108 93.31410565 -1.75439453 105.45898438 C-6.15075169 123.30113461 -19.14704819 136.37670356 -34.390625 145.59375 C-36.0407847 146.54079818 -37.70721231 147.45935186 -39.375 148.375 C-40.220625 148.91125 -41.06625 149.4475 -41.9375 150 C-44.69360735 151.55472722 -47.36208924 152.39397112 -50.375 153.375 C-51.67502667 153.84092308 -52.97446954 154.30847713 -54.2734375 154.77734375 C-78.34039003 163.17702239 -103.34154571 164.04963549 -128.375 160.375 C-129.38175781 160.230625 -130.38851562 160.08625 -131.42578125 159.9375 C-150.93512908 156.77534811 -173.39813907 147.87720895 -185.375 131.375 C-185.705 130.65699219 -186.035 129.93898438 -186.375 129.19921875 C-187.29941831 127.02248195 -187.29941831 127.02248195 -190.375 126.375 C-191.82583705 124.11979744 -193.08844101 121.93673987 -194.3125 119.5625 C-194.66513916 118.88614502 -195.01777832 118.20979004 -195.38110352 117.51293945 C-199.98422609 108.46945782 -203.07094018 99.56761402 -203.375 89.375 C-203.39546387 88.69518066 -203.41592773 88.01536133 -203.43701172 87.31494141 C-203.70802906 76.78558173 -203.27266947 66.76135164 -201.375 56.375 C-200.715 56.375 -200.055 56.375 -199.375 56.375 C-199.34921875 55.818125 -199.3234375 55.26125 -199.296875 54.6875 C-198.85345232 48.72144936 -197.34241528 44.52114876 -194.375 39.375 C-193.52018073 37.83369509 -192.66602671 36.29202106 -191.8125 34.75 C-191.18601562 33.63431641 -191.18601562 33.63431641 -190.546875 32.49609375 C-189.07331771 29.82895506 -187.70940465 27.11404112 -186.375 24.375 C-185.715 24.375 -185.055 24.375 -184.375 24.375 C-184.14941406 23.83359375 -183.92382812 23.2921875 -183.69140625 22.734375 C-181.96986309 19.64887925 -179.70624519 17.1934592 -177.3125 14.625 C-176.82587891 14.1000293 -176.33925781 13.57505859 -175.83789062 13.03417969 C-167.10250864 3.72365195 -167.10250864 3.72365195 -162.375 0.375 C-161.385 0.375 -160.395 0.375 -159.375 0.375 C-159.375 -0.285 -159.375 -0.945 -159.375 -1.625 C-157.11098265 -3.18868132 -154.86864591 -4.61097751 -152.5 -6 C-151.81397705 -6.40629639 -151.1279541 -6.81259277 -150.42114258 -7.23120117 C-145.23239831 -10.24828098 -140.02631823 -12.60393535 -134.375 -14.625 C-132.81179954 -15.29002257 -131.24932146 -15.95674524 -129.6875 -16.625 C-87.85540485 -33.06133939 -35.48961149 -28.76809417 0 0 Z " fill="#0B0B0B" transform="translate(296.375,237.625)"/>
<path d="M0 0 C-0.48913286 4.80980642 -1.17348744 8.51550273 -3 13 C-3.48940838 14.80435726 -3.94595502 16.61784451 -4.375 18.4375 C-6.06043999 25.34950643 -7.98344928 32.17787882 -10 39 C-10.38671875 40.35931641 -10.38671875 40.35931641 -10.78125 41.74609375 C-13.20269993 49.76056663 -13.20269993 49.76056663 -17 52 C-21.09391576 52.78408895 -25.11457095 53.18309628 -28.76171875 50.89453125 C-31.20282117 48.28555933 -31.99213579 46.05406643 -32.5 42.5625 C-32.03839121 39.2735374 -31.10676632 36.92251353 -29.77539062 33.92016602 C-28.50319616 30.76972222 -27.76556773 27.48816088 -27 24.1875 C-26.6547175 22.77968465 -26.30836372 21.3721316 -25.9609375 19.96484375 C-25.38488248 17.60616235 -24.82836334 15.24649621 -24.2890625 12.87890625 C-23.21165079 8.61362341 -22.57190148 6.51991044 -19.25 3.5 C-12.68238815 0.46879453 -7.12608802 -0.29086074 0 0 Z " fill="#0F0F0F" transform="translate(232,309)"/>
<path d="M0 0 C3.82845014 0.18376561 5.08675588 0.29046904 8.125 2.75 C10.96079346 8.67938633 10.4922129 12.80152827 8.5625 19 C7.99208984 20.86785156 7.99208984 20.86785156 7.41015625 22.7734375 C7.10980469 23.71445312 6.80945313 24.65546875 6.5 25.625 C5.51 25.625 4.52 25.625 3.5 25.625 C-3.39406037 30.49281113 -9.16994052 37.24649046 -15.02734375 43.27929688 C-15.70667969 43.96958984 -16.38601562 44.65988281 -17.0859375 45.37109375 C-17.6948584 45.99685303 -18.3037793 46.6226123 -18.93115234 47.26733398 C-20.5 48.625 -20.5 48.625 -22.5 48.625 C-22.70625 49.16125 -22.9125 49.6975 -23.125 50.25 C-24.77293065 53.09642567 -26.82913015 54.96969394 -29.2578125 57.16015625 C-30.82338121 58.68624175 -30.82338121 58.68624175 -30.5 61.625 C-31.11875 61.74875 -31.7375 61.8725 -32.375 62 C-34.69120832 62.49697356 -34.69120832 62.49697356 -36.5 64.625 C-35.84 65.285 -35.18 65.945 -34.5 66.625 C-37.47 68.275 -40.44 69.925 -43.5 71.625 C-43.83 70.635 -44.16 69.645 -44.5 68.625 C-43.015 68.13 -43.015 68.13 -41.5 67.625 C-40.76676204 65.60991642 -40.76676204 65.60991642 -40.5 63.625 C-38.52 63.13 -38.52 63.13 -36.5 62.625 C-36.98571866 58.25353208 -38.33674921 56.5841701 -41.5 53.625 C-41.5 52.965 -41.5 52.305 -41.5 51.625 C-42.16 51.295 -42.82 50.965 -43.5 50.625 C-42.5 47.625 -42.5 47.625 -39.375 45.75 C-36.50140214 44.32623918 -33.95589968 43.50120998 -30.80859375 42.78515625 C-23.05570975 41.06216156 -23.05570975 41.06216156 -17.59765625 35.6015625 C-16.51183892 32.34757958 -15.6555333 29.2000328 -14.96826172 25.84716797 C-14.29662722 22.65988056 -13.44895596 19.52827331 -12.58837891 16.38745117 C-12.16417505 14.83145361 -11.75795326 13.27040709 -11.37255859 11.7043457 C-9.6647056 5.09990812 -7.67607108 -0.10544054 0 0 Z " fill="#0F0F0F" transform="translate(237.5,246.375)"/>
<path d="M0 0 C3.0625 1.9375 3.0625 1.9375 5 5 C6.27555694 11.40255281 4.27435958 17.07557064 2 23 C1.608125 24.175625 1.21625 25.35125 0.8125 26.5625 C0.544375 27.366875 0.27625 28.17125 0 29 C-5.8233843 27.09848676 -8.6522633 24.55108467 -12.421875 19.7421875 C-13.98215652 17.73327559 -13.98215652 17.73327559 -17 17 C-16.01 12.71 -15.02 8.42 -14 4 C-13.34 4 -12.68 4 -12 4 C-12 3.34 -12 2.68 -12 2 C-7.96514506 -0.68990329 -4.73771348 -0.77993882 0 0 Z " fill="#0D0D0D" transform="translate(183,255)"/>
<path d="M0 0 C17 17 17 17 18.76953125 18.83984375 C23.00125807 23.18842299 27.3277954 26.89029004 32.3125 30.359375 C32.869375 30.90078125 33.42625 31.4421875 34 32 C34 33.32 34 34.64 34 36 C30.49909055 37.75045473 26.60544209 37.42496996 22.875 36.4375 C20.49890374 34.6158262 19.0873542 32.34853175 17.4375 29.87890625 C15.41315113 27.23295025 12.97362342 25.29930181 10.35546875 23.26171875 C9.90816406 22.84535156 9.46085937 22.42898438 9 22 C9 21.34 9 20.68 9 20 C8.34 20 7.68 20 7 20 C7 19.34 7 18.68 7 18 C6.01 17.690625 6.01 17.690625 5 17.375 C0.88393737 15.48847129 -2.4587703 12.79432021 -6 10 C-5.58578031 5.16743695 -3.53586014 3.17320782 0 0 Z " fill="#0E0E0E" transform="translate(277,235)"/>
<path d="M0 0 C1.32 0.33 2.64 0.66 4 1 C4 1.66 4 2.32 4 3 C4.99 3.33 5.98 3.66 7 4 C8.17288315 5.40745978 9.34142758 6.81892085 10.48046875 8.25390625 C12.77749493 10.89341962 15.42779455 13.07295838 18.08203125 15.34375 C21.6058719 18.3867407 24.74637433 21.65054097 27.6875 25.25 C29.7042322 28.01742194 29.7042322 28.01742194 32 29 C32 29.66 32 30.32 32 31 C32.78375 30.34 33.5675 29.68 34.375 29 C37 27 37 27 39 27 C39.495 25.515 39.495 25.515 40 24 C40.66 24 41.32 24 42 24 C40.92730209 26.59235327 40.16833074 27.8762274 37.875 29.5625 C37.25625 30.036875 36.6375 30.51125 36 31 C35.65083807 34.23877584 35.65083807 34.23877584 38.5 36.5625 C39.325 37.366875 40.15 38.17125 41 39 C41 39.66 41 40.32 41 41 C41.66 41.66 42.32 42.32 43 43 C37.8771715 42.51730187 34.31993443 40.69316503 30.125 37.875 C29.51221191 37.47120117 28.89942383 37.06740234 28.26806641 36.65136719 C21.74635449 32.28056105 15.48609601 27.54222335 11 21 C11 20.34 11 19.68 11 19 C10.01 18.67 9.02 18.34 8 18 C6.47625849 15.55851743 5.12349552 13.17587012 3.8125 10.625 C3.44447266 9.93921875 3.07644531 9.2534375 2.69726562 8.546875 C0 3.40255392 0 3.40255392 0 0 Z " fill="#131313" transform="translate(98,346)"/>
<path d="M0 0 C7.15496202 2.16817031 12.79176905 8.00645894 17 14 C17.79244886 17.52199491 17.06191446 18.87617107 15.4375 22.125 C12.49547268 25.5950835 10.37494416 26.79311885 6 28 C2.07800164 27.23098071 -1.25285632 25.9506358 -4 23 C-5.83174642 16.89417861 -4.13804461 12.68480086 -2 7 C-1.29224287 4.67633955 -0.64761657 2.341383 0 0 Z " fill="#0C0C0C" transform="translate(150,326)"/>
<path d="M0 0 C4 0 4 0 5.67578125 1.5390625 C6.21589844 2.22742188 6.75601563 2.91578125 7.3125 3.625 C10.57214692 7.5901982 14.0270293 10.75675861 18 14 C17.67 14.99 17.34 15.98 17 17 C12.77717482 17.80395025 8.80386236 18.11811363 4.5078125 18.09765625 C3.30898437 18.09443359 2.11015625 18.09121094 0.875 18.08789062 C-0.98125 18.07532227 -0.98125 18.07532227 -2.875 18.0625 C-4.13570312 18.05798828 -5.39640625 18.05347656 -6.6953125 18.04882812 C-9.79692386 18.0370796 -12.89843725 18.02065167 -16 18 C-12.8802272 13.66545421 -9.93072906 9.56994024 -5.75 6.1875 C-3.24870864 4.14671771 -1.82739995 2.74109993 0 0 Z " fill="#050505" transform="translate(202,381)"/>
<path d="M0 0 C-3.43395858 4.08971878 -6.91752691 8.0232503 -10.75 11.75 C-13.19150899 14.12507337 -15.10250747 16.1537612 -17 19 C-18.9375 18.6875 -18.9375 18.6875 -21 18 C-21.33 17.01 -21.66 16.02 -22 15 C-24.59237897 12.18541711 -27.33601898 9.7035594 -30.3125 7.3125 C-31.199375 6.549375 -32.08625 5.78625 -33 5 C-33 4.34 -33 3.68 -33 3 C-22.43319404 -1.24694594 -11.16318011 -0.28805348 0 0 Z " fill="#050505" transform="translate(222,213)"/>
<path d="M0 0 C5.34844008 0.53484401 9.35796103 2.46690767 14 5 C14 5.66 14 6.32 14 7 C14.680625 7.185625 15.36125 7.37125 16.0625 7.5625 C20.22009415 9.59706735 22.89604496 12.62194869 26 16 C26.7425 16.763125 27.485 17.52625 28.25 18.3125 C30.76523315 22.17517948 32.36348626 26.42020602 33 31 C32.34 31.99 31.68 32.98 31 34 C28 30.25 28 30.25 28 28 C26.68 27.67 25.36 27.34 24 27 C24 26.34 24 25.68 24 25 C23.34 25 22.68 25 22 25 C20.2856382 23.04072937 18.61594832 21.04119788 17 19 C14.75928906 20.00445663 13.12245015 20.87754985 11.375 22.625 C10.92125 23.07875 10.4675 23.5325 10 24 C9.34 24 8.68 24 8 24 C9.24976756 20.34683329 9.67098753 19.21934164 13 17 C11.67589015 13.4249034 9.53859098 11.75310247 6.59765625 9.43359375 C3.85595172 6.97343345 2.01048858 4.07486488 0 1 C0 0.67 0 0.34 0 0 Z " fill="#1A1A1A" transform="translate(261,290)"/>
<path d="M0 0 C1.8125 0.1875 1.8125 0.1875 4 1 C5.04892238 2.63631892 6.04906703 4.30485863 7 6 C7.99 6.66 8.98 7.32 10 8 C9.41636645 11.49794254 8.20815924 13.17637761 5.7265625 15.671875 C4.7365625 16.66767578 4.7365625 16.66767578 3.7265625 17.68359375 C3.03304687 18.36550781 2.33953125 19.04742187 1.625 19.75 C0.93921875 20.44738281 0.2534375 21.14476562 -0.453125 21.86328125 C-1.11570313 22.52199219 -1.77828125 23.18070312 -2.4609375 23.859375 C-3.06728027 24.46233398 -3.67362305 25.06529297 -4.29833984 25.68652344 C-6 27 -6 27 -9 27 C-10.18588517 23.4423445 -9.4841408 22.62406504 -7.96875 19.3828125 C-5.82407512 14.10760412 -4.49904326 8.48634615 -3 3 C-2.34 3 -1.68 3 -1 3 C-0.67 2.01 -0.34 1.02 0 0 Z " fill="#0C0C0C" transform="translate(228,260)"/>
<path d="M0 0 C-0.48650422 4.78395815 -1.12944188 8.55742447 -3 13 C-3.37593066 14.9924325 -3.71979545 16.9918674 -4 19 C-4.33 18.34 -4.66 17.68 -5 17 C-6.91592094 15.94294017 -8.86802538 15.057189 -10.875 14.1875 C-12.88006472 13.06702265 -14.34362318 11.8816698 -16.0625 10.375 C-18.75923113 7.68563893 -18.75923113 7.68563893 -22 8 C-20.98624859 5.24259617 -20.32497544 4.1799864 -17.71484375 2.734375 C-11.51652405 0.5375022 -6.57411683 -0.43108963 0 0 Z " fill="#191919" transform="translate(232,309)"/>
<path d="M0 0 C1.21236328 0.02707031 1.21236328 0.02707031 2.44921875 0.0546875 C3.37154297 0.08949219 3.37154297 0.08949219 4.3125 0.125 C4.6425 0.785 4.9725 1.445 5.3125 2.125 C3.95125 2.434375 3.95125 2.434375 2.5625 2.75 C-1.46579242 4.45427756 -2.43336829 6.47175205 -4.6875 10.125 C-5.6775 10.455 -6.6675 10.785 -7.6875 11.125 C-8.19299294 13.36925432 -8.19299294 13.36925432 -7.6875 16.125 C-6.24199022 17.85369444 -4.69305365 19.3076277 -3 20.79296875 C-1.6875 22.125 -1.6875 22.125 -1.6875 24.125 C-1.0275 24.125 -0.3675 24.125 0.3125 24.125 C0.6425 24.785 0.9725 25.445 1.3125 26.125 C2.3025 26.455 3.2925 26.785 4.3125 27.125 C3.9825 27.785 3.6525 28.445 3.3125 29.125 C-1.93102678 27.07874565 -4.6555442 24.15821349 -8.07421875 19.8671875 C-9.67016722 17.86343336 -9.67016722 17.86343336 -12.6875 17.125 C-11.6975 12.835 -10.7075 8.545 -9.6875 4.125 C-9.0275 4.125 -8.3675 4.125 -7.6875 4.125 C-7.6875 3.465 -7.6875 2.805 -7.6875 2.125 C-4.48369983 -0.01086678 -3.66810033 -0.10632175 0 0 Z " fill="#1C1C1C" transform="translate(178.6875,254.875)"/>
<path d="M0 0 C5.34844008 0.53484401 9.35796103 2.46690767 14 5 C14 5.66 14 6.32 14 7 C14.78375 7.268125 15.5675 7.53625 16.375 7.8125 C19 9 19 9 21 12 C20.01 12 19.02 12 18 12 C17.34 12.66 16.68 13.32 16 14 C16.33 14.33 16.66 14.66 17 15 C17 15.66 17 16.32 17 17 C13.15588253 15.43387807 10.84049791 12.97905879 8 10 C7.13375 9.175 6.2675 8.35 5.375 7.5 C3.11967172 5.12597023 1.55641405 2.86707851 0 0 Z " fill="#212121" transform="translate(261,290)"/>
<path d="M0 0 C5.23272633 1.63958758 10.15196636 3.38952035 15 6 C14.01 7.485 14.01 7.485 13 9 C12.29835358 10.98799818 11.62627128 12.98698517 11 15 C10.01 15 9.02 15 8 15 C8.33 13.68 8.66 12.36 9 11 C8.443125 10.773125 7.88625 10.54625 7.3125 10.3125 C4.29791241 8.60151785 2.25225171 6.627627 0 4 C0 2.68 0 1.36 0 0 Z M4 19 C4.99 19.33 5.98 19.66 7 20 C6.01 20.495 6.01 20.495 5 21 C5 21.66 5 22.32 5 23 C3.68 22.67 2.36 22.34 1 22 C1.99 21.01 2.98 20.02 4 19 Z " fill="#202020" transform="translate(266,221)"/>
<path d="M0 0 C-1.19919197 4.53028077 -3.51165108 6.57550827 -7.05078125 9.375 C-9.50898246 11.42432205 -11.73698497 13.73698497 -14 16 C-8.06 16.33 -2.12 16.66 4 17 C4 17.33 4 17.66 4 18 C-3.26 18 -10.52 18 -18 18 C-14.61916732 12.36527887 -14.61916732 12.36527887 -11.93359375 9.66796875 C-11.36576172 9.09755859 -10.79792969 8.52714844 -10.21289062 7.93945312 C-9.62701172 7.36130859 -9.04113281 6.78316406 -8.4375 6.1875 C-7.84775391 5.59001953 -7.25800781 4.99253906 -6.65039062 4.37695312 C-2.25342857 0 -2.25342857 0 0 0 Z " fill="#222222" transform="translate(223,214)"/>
<path d="M0 0 C0.66 0.33 1.32 0.66 2 1 C2 1.66 2 2.32 2 3 C2.86625 3.37125 2.86625 3.37125 3.75 3.75 C6.3002997 5.16683317 8.01785701 6.87627537 10 9 C9.34 9 8.68 9 8 9 C8.33 9.99 8.66 10.98 9 12 C8.01 12.99 7.02 13.98 6 15 C6.66 15.66 7.32 16.32 8 17 C3.545 19.475 3.545 19.475 -1 22 C-1.33 21.01 -1.66 20.02 -2 19 C-1.01 18.67 -0.02 18.34 1 18 C1.73323796 15.98491642 1.73323796 15.98491642 2 14 C3.32 13.67 4.64 13.34 6 13 C5.51428134 8.62853208 4.16325079 6.9591701 1 4 C1 3.34 1 2.68 1 2 C0.34 1.67 -0.32 1.34 -1 1 C-0.67 0.67 -0.34 0.34 0 0 Z " fill="#131313" transform="translate(195,296)"/>
<path d="M0 0 C3.08724139 1.54362069 4.71039204 2.37505652 6.1875 5.5625 C6.455625 6.366875 6.72375 7.17125 7 8 C7.66 8.66 8.32 9.32 9 10 C4.63890395 9.49289581 1.54924701 8.63658349 -2 6 C-2.33 5.01 -2.66 4.02 -3 3 C-2.01 2.01 -1.02 1.02 0 0 Z " fill="#202020" transform="translate(132,379)"/>
<path d="M0 0 C4.42294479 2.48116415 8.17249085 5.67082317 11.5625 9.4375 C11.5625 10.0975 11.5625 10.7575 11.5625 11.4375 C10.2425 11.1075 8.9225 10.7775 7.5625 10.4375 C7.5625 9.7775 7.5625 9.1175 7.5625 8.4375 C6.9025 8.4375 6.2425 8.4375 5.5625 8.4375 C3.8481382 6.47822937 2.17844832 4.47869788 0.5625 2.4375 C-1.67821094 3.44195663 -3.31504985 4.31504985 -5.0625 6.0625 C-5.51625 6.51625 -5.97 6.97 -6.4375 7.4375 C-7.0975 7.4375 -7.7575 7.4375 -8.4375 7.4375 C-7.51928464 4.60633598 -6.67092141 2.68701943 -4.625 0.5 C-2.4375 -0.5625 -2.4375 -0.5625 0 0 Z " fill="#121212" transform="translate(277.4375,306.5625)"/>
<path d="M0 0 C3 0 3 0 4.4296875 1.35546875 C4.90664062 1.96003906 5.38359375 2.56460937 5.875 3.1875 C7.77797749 5.5376772 9.68116059 7.73084556 11.875 9.8125 C14 12 14 12 14 14 C15.98 14 17.96 14 20 14 C20 14.33 20 14.66 20 15 C16.75 15.3125 16.75 15.3125 13 15 C11.0625 12.9375 11.0625 12.9375 9 10 C6.94853766 8.15449156 4.84059074 6.39803545 2.70703125 4.6484375 C1 3 1 3 0 0 Z " fill="#202020" transform="translate(207,382)"/>
<path d="M0 0 C4.42806388 2.27729 6.88466704 5.16574405 10 9 C11.32901064 10.00573778 12.66073801 11.00795408 14 12 C14 12.66 14 13.32 14 14 C11.525 13.01 11.525 13.01 9 12 C9 11.34 9 10.68 9 10 C8.34 10 7.68 10 7 10 C5.62926214 8.36395804 4.29944744 6.69321939 3 5 C2.4225 4.443125 1.845 3.88625 1.25 3.3125 C0 2 0 2 0 0 Z " fill="#121212" transform="translate(188,217)"/>
<path d="M0 0 C2.375 0.25 2.375 0.25 5 1 C6 2.6875 6 2.6875 7 5 C8.59105285 7.07242234 10.29108431 9.02125551 12 11 C11.67 11.66 11.34 12.32 11 13 C6.34140775 9.4248013 3.2184241 5.92229568 0 1 C0 0.67 0 0.34 0 0 Z " fill="#191919" transform="translate(261,290)"/>
<path d="M0 0 C4.85600034 1.47151525 8.54549014 4.35047748 12 8 C12.33 8.99 12.66 9.98 13 11 C12.01 11.495 12.01 11.495 11 12 C11 11.34 11 10.68 11 10 C10.46375 9.773125 9.9275 9.54625 9.375 9.3125 C6.21499137 7.56617944 3.7323017 5.3597151 1 3 C0.34 3.66 -0.32 4.32 -1 5 C-0.67 3.35 -0.34 1.7 0 0 Z " fill="#232323" transform="translate(150,326)"/>
<path d="M0 0 C3.36716935 1.45383375 5.52270045 3.30961491 8.0625 5.9375 C8.73410156 6.62714844 9.40570313 7.31679688 10.09765625 8.02734375 C10.72542969 8.67832031 11.35320312 9.32929688 12 10 C12.57621094 10.53753906 13.15242188 11.07507813 13.74609375 11.62890625 C15 13 15 13 15 15 C14.34 15 13.68 15 13 15 C13 14.01 13 13.02 13 12 C12.1028125 11.566875 12.1028125 11.566875 11.1875 11.125 C9 10 9 10 6 8 C6 7.34 6 6.68 6 6 C5.38125 5.7525 4.7625 5.505 4.125 5.25 C1.64931313 3.79371361 1.04874998 2.62187494 0 0 Z " fill="#1B1B1B" transform="translate(298,255)"/>
<path d="M0 0 C-1.43774363 3.73813345 -3.84849875 5.91120581 -6.7578125 8.53515625 C-8.32338121 10.06124175 -8.32338121 10.06124175 -8 13 C-9.32 12.67 -10.64 12.34 -12 12 C-12 10 -12 10 -9.8125 7.6875 C-8.884375 6.800625 -7.95625 5.91375 -7 5 C-6.113125 4.071875 -5.22625 3.14375 -4.3125 2.1875 C-2 0 -2 0 0 0 Z " fill="#151515" transform="translate(215,295)"/>
<path d="M0 0 C3.39859703 1.46966358 5.64963709 3.38037514 8.25 6 C8.95640625 6.70125 9.6628125 7.4025 10.390625 8.125 C12 10 12 10 12 12 C8.23348872 11.45123677 6.73347739 9.99236151 4.3125 7.125 C3.40951172 6.07699219 3.40951172 6.07699219 2.48828125 5.0078125 C1 3 1 3 0 0 Z " fill="#121212" transform="translate(137,239)"/>
<path d="M0 0 C0.33 0.99 0.66 1.98 1 3 C2.31952498 3.69359646 3.65525957 4.35665296 5 5 C6.921875 6.7265625 6.921875 6.7265625 8.75 8.625 C9.36359375 9.25664062 9.9771875 9.88828125 10.609375 10.5390625 C11.29773438 11.26222656 11.29773438 11.26222656 12 12 C11.34 12.66 10.68 13.32 10 14 C8.3214068 12.42931636 6.65744264 10.84298654 5 9.25 C4.071875 8.36828125 3.14375 7.4865625 2.1875 6.578125 C0 4 0 4 0 0 Z " fill="#131313" transform="translate(260,360)"/>
<path d="M0 0 C-0.99 0.66 -1.98 1.32 -3 2 C-3.33 2.99 -3.66 3.98 -4 5 C-3.01 5.33 -2.02 5.66 -1 6 C-1 6.66 -1 7.32 -1 8 C-0.34 8.33 0.32 8.66 1 9 C0.01 9 -0.98 9 -2 9 C-3.33333333 7.66666667 -4.66666667 6.33333333 -6 5 C-6.99 5 -7.98 5 -9 5 C-8.00233891 2.50584728 -7.31383315 1.21259665 -5.0625 -0.3125 C-3 -1 -3 -1 0 0 Z " fill="#323232" transform="translate(219,312)"/>
<path d="M0 0 C4.17443363 3.50074982 8.3145494 6.97950843 12 11 C12 11.66 12 12.32 12 13 C10.68 12.34 9.36 11.68 8 11 C8 10.34 8 9.68 8 9 C7.4225 8.7525 6.845 8.505 6.25 8.25 C3.65091342 6.80606301 1.92163162 5.26478013 0 3 C0 2.01 0 1.02 0 0 Z " fill="#121212" transform="translate(104,278)"/>
<path d="M0 0 C1.98 0.66 3.96 1.32 6 2 C3.11964908 4.24027294 0.15133488 6.16172132 -3 8 C-3.33 7.01 -3.66 6.02 -4 5 C-3.01 4.67 -2.02 4.34 -1 4 C-0.26676204 1.98491642 -0.26676204 1.98491642 0 0 Z " fill="#3F3F3F" transform="translate(197,310)"/>
<path d="M0 0 C-0.38597015 2.79828356 -0.80136573 3.8205884 -2.9375 5.75 C-5 7 -5 7 -7 7 C-6.61402985 4.20171644 -6.19863427 3.1794116 -4.0625 1.25 C-2 0 -2 0 0 0 Z " fill="#383838" transform="translate(165,346)"/>
<path d="M0 0 C1.32 0.99 2.64 1.98 4 3 C3.67 3.99 3.34 4.98 3 6 C3 5.34 3 4.68 3 4 C1.68 4 0.36 4 -1 4 C-1.66 4.66 -2.32 5.32 -3 6 C-2.625 3.5625 -2.625 3.5625 -2 1 C-1.34 0.67 -0.68 0.34 0 0 Z " fill="#1A1A1A" transform="translate(229,257)"/>
<path d="M0 0 C0.99 0.33 1.98 0.66 3 1 C2.01 1.495 2.01 1.495 1 2 C1 2.66 1 3.32 1 4 C-0.32 3.67 -1.64 3.34 -3 3 C-2.01 2.01 -1.02 1.02 0 0 Z " fill="#2A2A2A" transform="translate(270,240)"/>
<path d="M0 0 C1.32 0.66 2.64 1.32 4 2 C1.7252187 3.38111722 0.49828639 4.05694702 -2.1875 3.75 C-4 3 -4 3 -5 1 C-3.68 1 -2.36 1 -1 1 C-0.67 0.67 -0.34 0.34 0 0 Z " fill="#0D0D0D" transform="translate(279,301)"/>
<path d="M0 0 C2.99324263 1.0975223 3.84610901 1.67682892 5.25 4.625 C5.4975 5.40875 5.745 6.1925 6 7 C2.58841744 5.86280581 1.88145399 4.95657056 0 2 C0 1.34 0 0.68 0 0 Z " fill="#131313" transform="translate(267,296)"/>
<path d="M0 0 C0.66 0.33 1.32 0.66 2 1 C2 2.65 2 4.3 2 6 C0.35 5.67 -1.3 5.34 -3 5 C-3 4.01 -3 3.02 -3 2 C-2.01 1.34 -1.02 0.68 0 0 Z " fill="#353535" transform="translate(242,266)"/>
</svg>
